<svg version="1.1" id="Layer_1" xmlns="http://www.w3.org/2000/svg" xmlns:xlink="http://www.w3.org/1999/xlink" x="0px" y="0px"
	 width="100%" viewBox="0 0 1080 1080" enable-background="new 0 0 1080 1080" xml:space="preserve">
<path fill="#5BBC96" opacity="1.000000" stroke="none" 
	d="
M1.000003,587.000000 
	C1.000000,556.312439 1.000000,525.624878 1.270385,494.148804 
	C2.415606,485.452148 3.042161,477.506866 4.219079,469.643951 
	C6.395041,455.106537 8.544955,440.548981 11.376728,426.131592 
	C13.350472,416.082672 16.179518,406.175201 19.098206,396.344604 
	C23.447521,381.695435 27.668938,366.969147 32.951908,352.647156 
	C38.392445,337.898010 44.385277,323.271667 51.325493,309.177094 
	C59.970779,291.619751 69.045189,274.170380 79.388870,257.581329 
	C90.020592,240.530380 102.287819,224.487915 114.048248,208.154541 
	C132.861542,182.025864 155.125656,158.889435 179.248199,137.834610 
	C198.903320,120.679108 220.073120,105.166023 241.293274,89.930267 
	C254.765564,80.257339 269.163788,71.673744 283.850983,63.938828 
	C307.523041,51.472099 331.776093,40.263538 357.182068,31.432966 
	C378.483856,24.028919 399.794556,17.075979 421.986267,12.985122 
	C426.003174,12.244638 430.026581,11.522330 434.013763,10.641331 
	C440.275665,9.257711 446.442413,7.258306 452.768921,6.391143 
	C465.725861,4.615150 478.763519,3.430234 491.762177,1.951202 
	C492.534180,1.863359 493.255249,1.327420 494.000000,1.000000 
	C525.020874,1.000000 556.041809,1.000000 587.873047,1.236874 
	C596.547241,2.398638 604.455444,3.047448 612.265808,4.304673 
	C629.675476,7.107088 647.128601,9.768620 664.384949,13.350025 
	C676.181641,15.798330 687.809143,19.296211 699.274658,23.050531 
	C716.392761,28.655775 733.638000,34.096973 750.226990,41.045513 
	C781.420227,54.111229 811.128418,70.062309 839.404297,88.792900 
	C862.010803,103.767937 883.573608,120.077164 903.470764,138.337006 
	C919.973450,153.481628 935.119995,170.144363 950.405090,186.564850 
	C968.551208,206.058868 983.843933,227.817932 998.284790,250.117554 
	C1013.529175,273.658081 1026.463501,298.503998 1037.619263,324.231445 
	C1042.686401,335.917175 1047.364990,347.791809 1051.693726,359.770935 
	C1055.220337,369.530487 1058.134277,379.524048 1061.001221,389.505402 
	C1063.357178,397.707794 1065.345825,406.020844 1067.312744,414.328491 
	C1069.412476,423.196930 1071.396240,432.095886 1073.237305,441.021393 
	C1074.403687,446.675964 1075.418823,452.377838 1076.144287,458.103790 
	C1077.492554,468.745605 1078.579346,479.420563 1079.427490,490.056213 
	C1077.003296,488.446045 1074.711670,487.076355 1072.880493,485.246124 
	C945.070251,357.504303 817.298645,229.723877 689.499573,101.970955 
	C688.002380,100.474358 686.189941,99.293144 684.325684,97.588745 
	C683.423218,96.831650 682.739929,96.162781 682.013245,96.111824 
	C666.974670,95.057259 651.940002,93.445427 636.886414,93.235107 
	C618.485474,92.978043 600.049805,93.772392 581.980286,97.949173 
	C568.324524,101.105698 554.697937,104.388664 540.662231,107.468681 
	C538.000610,106.769157 535.714111,106.290680 533.473145,105.652031 
	C509.865356,98.923828 485.862244,94.105148 461.283447,93.998749 
	C441.512848,93.913162 421.736786,95.355301 401.960724,96.049934 
	C397.972565,96.190010 397.639282,97.818024 399.035614,101.170074 
	C404.343079,113.911087 409.319427,126.791107 414.714081,139.494095 
	C416.410248,143.488052 415.782532,145.134613 411.597778,146.840500 
	C375.378418,161.605103 342.064972,180.995926 314.122437,209.218430 
	C314.316620,210.500107 314.429504,211.965637 315.218018,212.763641 
	C324.755096,222.415512 334.463287,231.899277 343.933533,241.615295 
	C345.541321,243.264801 346.238831,245.801575 347.355286,248.401810 
	C346.510162,273.842621 345.675568,298.809631 350.631226,323.576904 
	C350.222839,323.755585 350.069153,323.847870 349.554352,323.939484 
	C347.161926,325.032959 344.945984,325.883118 343.127991,327.259094 
	C325.594940,340.529419 319.581940,358.561310 321.316071,379.901947 
	C322.419098,393.475891 323.246796,407.075104 323.998993,420.673981 
	C324.984375,438.487915 331.857330,452.730255 348.188751,461.802429 
	C350.261566,464.301056 352.110504,466.623413 354.200317,468.703766 
	C367.048492,481.494171 379.951141,494.229797 393.110046,507.197144 
	C400.194336,518.161255 406.934418,528.956909 413.847076,539.640991 
	C416.785034,544.181885 420.084473,548.488953 423.120728,553.368164 
	C422.982391,595.612488 422.947784,637.390869 422.890625,679.169312 
	C422.887451,681.491821 422.697754,683.814087 422.151733,686.130920 
	C364.233643,686.385925 306.754822,686.347961 249.286102,687.090759 
	C232.269272,687.310608 216.445663,693.558411 201.678696,701.921448 
	C182.597046,712.727966 167.581482,727.674805 156.499695,746.688904 
	C146.750488,763.416687 140.741470,781.453064 140.311798,800.614014 
	C139.527435,835.590454 140.064713,870.596497 139.763519,905.470093 
	C136.354202,901.525024 133.206604,897.720581 130.114716,893.871399 
	C120.815880,882.295227 110.798538,871.209106 102.426727,858.995911 
	C89.891693,840.709351 77.904411,821.979675 66.849953,802.767639 
	C58.290237,787.891357 51.197277,772.133301 44.055058,756.492004 
	C38.919975,745.246277 34.489491,733.651428 30.276691,722.019714 
	C26.242521,710.881165 22.511696,699.599731 19.362495,688.183838 
	C16.676788,678.447998 15.010212,668.431274 12.886210,658.540283 
	C10.929142,649.426575 8.492953,640.385376 7.111103,631.185669 
	C5.019713,617.262085 3.671004,603.227234 1.958558,589.245605 
	C1.863508,588.469543 1.329630,587.747314 1.000003,587.000000 
z"/>
<path fill="#309167" opacity="1.000000" stroke="none" 
	d="
M684.524658,97.964722 
	C686.189941,99.293144 688.002380,100.474358 689.499573,101.970955 
	C817.298645,229.723877 945.070251,357.504303 1072.880493,485.246124 
	C1074.711670,487.076355 1077.003296,488.446045 1079.487671,490.398499 
	C1080.263550,491.844177 1080.631714,492.922089 1081.000000,494.000000 
	C1081.000000,524.687561 1081.000000,555.375122 1080.727539,586.854858 
	C1078.904907,600.255005 1077.636841,612.905945 1075.727417,625.459290 
	C1073.712891,638.704895 1071.534912,651.958557 1068.591797,665.020142 
	C1066.019531,676.435486 1062.562622,687.677551 1058.997192,698.836548 
	C1054.083130,714.216675 1049.501221,729.780396 1043.310425,744.655151 
	C1035.875732,762.518982 1027.640503,780.145203 1018.384888,797.129272 
	C1008.873230,814.583130 998.003296,831.326965 987.167053,848.017517 
	C980.589050,858.149414 973.199219,867.789185 965.713135,877.286560 
	C958.467285,886.479065 950.631226,895.206238 942.792480,903.802124 
	C942.346558,901.494690 942.004700,899.523071 942.002380,897.551025 
	C941.967102,867.399597 942.143738,837.246643 941.864990,807.097778 
	C941.788635,798.843506 941.069336,790.463379 939.453430,782.379150 
	C933.822388,754.207520 919.142090,731.152954 897.189941,713.027161 
	C875.315430,694.965271 849.692993,686.158203 821.319946,686.078064 
	C767.347717,685.925659 713.374817,686.041809 659.314453,685.581421 
	C659.192810,643.702454 659.164490,602.288513 659.110657,560.874573 
	C659.107666,558.556335 658.895081,556.238403 658.881104,553.561523 
	C659.431580,551.992554 659.569092,550.496765 660.376892,549.614807 
	C673.070007,535.756226 682.702087,519.852661 690.976624,503.137329 
	C696.334778,492.313385 700.912598,481.101593 705.777649,470.036133 
	C707.151306,466.911652 708.613159,465.381348 712.777405,465.669220 
	C718.087708,466.036224 723.871460,465.436554 728.854614,463.618530 
	C748.930298,456.294250 757.520691,440.913361 758.256348,420.148224 
	C758.715515,407.187592 759.278137,394.177246 760.897644,381.328278 
	C762.139465,371.475250 761.385559,362.115479 758.119080,352.942230 
	C753.376709,339.624481 745.594116,328.809265 731.979736,322.875702 
	C733.282837,307.150177 735.472351,291.793213 735.598938,276.419250 
	C735.728333,260.698364 733.918701,244.954758 732.787354,229.233368 
	C732.301697,222.486099 732.437073,222.192688 739.060730,220.251099 
	C747.283264,217.840851 755.488953,215.352509 763.611328,212.628021 
	C769.305725,210.717957 769.607727,209.728119 764.861389,205.668137 
	C755.026611,197.255554 745.156982,188.828140 734.756958,181.144089 
	C715.447998,166.877701 694.146912,156.065109 672.025879,146.869492 
	C665.757935,144.263947 665.748169,144.486649 668.384521,138.008118 
	C673.808838,124.678337 679.149536,111.314537 684.524658,97.964722 
z"/>
<path fill="#205077" opacity="1.000000" stroke="none" 
	d="
M659.402161,686.046448 
	C713.374817,686.041809 767.347717,685.925659 821.319946,686.078064 
	C849.692993,686.158203 875.315430,694.965271 897.189941,713.027161 
	C919.142090,731.152954 933.822388,754.207520 939.453430,782.379150 
	C941.069336,790.463379 941.788635,798.843506 941.864990,807.097778 
	C942.143738,837.246643 941.967102,867.399597 942.002380,897.551025 
	C942.004700,899.523071 942.346558,901.494690 942.714172,904.121338 
	C927.079163,920.075500 911.559570,935.699890 895.369080,950.595093 
	C873.089600,971.092163 848.305664,988.319397 822.482178,1004.041870 
	C816.483887,1007.693909 810.183777,1010.850464 804.089600,1013.885864 
	C805.829102,1012.270447 807.526001,1011.035156 809.168945,1009.731750 
	C812.573242,1007.031189 817.242371,1006.183838 817.185730,999.744324 
	C816.829468,959.275818 816.947144,918.802551 817.082703,878.331360 
	C817.098450,873.626709 815.689941,871.851990 810.817383,871.910706 
	C792.832642,872.127197 774.843689,871.992615 756.856323,871.998230 
	C750.004822,872.000305 749.992920,872.010437 749.992371,878.867615 
	C749.988586,925.668091 750.010376,972.468628 749.952759,1019.269043 
	C749.948059,1023.070435 749.274536,1026.867432 749.171265,1030.673584 
	C749.100464,1033.282349 749.479736,1035.903564 749.644165,1038.318848 
	C756.116760,1036.364868 761.593079,1034.711670 766.829468,1033.314697 
	C763.838379,1034.963867 761.182251,1036.603027 758.319702,1037.707031 
	C745.321106,1042.720093 732.415833,1048.044189 719.191345,1052.386353 
	C701.199646,1058.293701 683.038452,1063.741455 664.769043,1068.722900 
	C655.865662,1071.150391 646.583252,1072.284668 637.417786,1073.632568 
	C622.039795,1075.894287 606.616516,1077.846924 591.218506,1079.974976 
	C590.119507,1080.126709 589.071655,1080.649658 588.000000,1081.000000 
	C572.645752,1081.000000 557.291565,1081.000000 541.468140,1080.531372 
	C541.026123,1010.164917 541.053223,940.267029 541.322754,870.122192 
	C542.003113,869.379578 542.517273,868.932434 542.868286,868.381409 
	C575.716064,816.822571 608.577087,765.272034 641.362610,713.673584 
	C646.870667,705.004822 652.048035,696.126099 657.668823,687.259766 
	C658.440369,686.798889 658.921265,686.422668 659.402161,686.046448 
z"/>
<path fill="#336B90" opacity="1.000000" stroke="none" 
	d="
M541.080383,870.369202 
	C541.053223,940.267029 541.026123,1010.164917 540.999512,1080.531372 
	C525.645752,1081.000000 510.291534,1081.000000 494.200378,1080.670776 
	C480.319153,1078.784180 467.146637,1077.429199 454.040009,1075.601562 
	C444.633850,1074.290039 435.273315,1072.551270 425.971436,1070.622192 
	C418.027802,1068.974976 410.157745,1066.927979 402.326569,1064.795776 
	C394.134827,1062.565308 385.980774,1060.170044 377.896881,1057.576782 
	C368.267670,1054.487915 358.668945,1051.279907 349.175598,1047.800049 
	C342.995300,1045.534668 337.026367,1042.692749 331.145630,1039.762207 
	C331.880127,1037.385864 332.910004,1035.357056 332.913452,1033.326538 
	C333.001740,981.559631 332.941833,929.792358 333.053589,878.025513 
	C333.063354,873.501099 331.611389,871.866638 327.010193,871.913391 
	C308.535736,872.101013 290.058258,871.985352 271.581879,871.992920 
	C264.992889,871.995605 264.976654,872.009888 264.975800,878.609741 
	C264.970581,919.057983 264.953674,959.506348 265.018890,999.954468 
	C265.023102,1002.572388 265.680206,1005.189270 265.677185,1007.833679 
	C264.454315,1007.194885 263.619751,1006.481934 262.716675,1005.870239 
	C246.131332,994.637268 229.215378,983.860107 213.018829,972.092590 
	C186.264954,952.654724 162.767349,929.522278 140.050690,905.590210 
	C140.064713,870.596497 139.527435,835.590454 140.311798,800.614014 
	C140.741470,781.453064 146.750488,763.416687 156.499695,746.688904 
	C167.581482,727.674805 182.597046,712.727966 201.678696,701.921448 
	C216.445663,693.558411 232.269272,687.310608 249.286102,687.090759 
	C306.754822,686.347961 364.233643,686.385925 422.317871,686.390869 
	C423.519806,687.168762 424.112488,687.681213 424.768311,688.547485 
	C428.670746,695.102356 432.446503,701.343689 436.359497,707.497742 
	C462.892273,749.226868 489.423035,790.957275 516.026184,832.641541 
	C523.607971,844.521301 531.427368,856.249451 539.143555,868.374817 
	C539.793030,869.258057 540.436707,869.813599 541.080383,870.369202 
z"/>
<path fill="#FFFFFF" opacity="1.000000" stroke="none" 
	d="
M139.763519,905.470093 
	C162.767349,929.522278 186.264954,952.654724 213.018829,972.092590 
	C229.215378,983.860107 246.131332,994.637268 262.716675,1005.870239 
	C263.619751,1006.481934 264.454315,1007.194885 266.007538,1007.993835 
	C274.799896,1012.749084 282.753479,1017.668701 291.054016,1021.909241 
	C299.272430,1026.108032 307.840851,1029.621948 316.349670,1033.785767 
	C317.274323,1034.486694 318.105042,1034.838135 319.105774,1035.361816 
	C319.275757,1035.534180 319.748871,1035.636719 319.748871,1035.636719 
	C319.748871,1035.636719 320.219269,1035.522461 320.461914,1035.749023 
	C321.434479,1036.359253 322.164337,1036.742920 322.950043,1037.077881 
	C323.005859,1037.029053 322.882996,1037.110474 322.981384,1037.321167 
	C323.079803,1037.531860 323.522186,1037.674438 323.522186,1037.674438 
	C323.522186,1037.674438 323.961121,1037.521362 324.282410,1037.660522 
	C325.053009,1037.915771 325.502289,1038.031860 326.058472,1038.451416 
	C327.118835,1039.078735 328.072266,1039.402710 329.330933,1039.862549 
	C330.078369,1040.035278 330.520569,1040.072144 330.962769,1040.109131 
	C337.026367,1042.692749 342.995300,1045.534668 349.175598,1047.800049 
	C358.668945,1051.279907 368.267670,1054.487915 377.896881,1057.576782 
	C385.980774,1060.170044 394.134827,1062.565308 402.326569,1064.795776 
	C410.157745,1066.927979 418.027802,1068.974976 425.971436,1070.622192 
	C435.273315,1072.551270 444.633850,1074.290039 454.040009,1075.601562 
	C467.146637,1077.429199 480.319153,1078.784180 493.731750,1080.670776 
	C329.739502,1081.000000 165.479004,1081.000000 1.000000,1081.000000 
	C1.000000,916.645813 1.000000,752.291565 1.000003,587.468628 
	C1.329630,587.747314 1.863508,588.469543 1.958558,589.245605 
	C3.671004,603.227234 5.019713,617.262085 7.111103,631.185669 
	C8.492953,640.385376 10.929142,649.426575 12.886210,658.540283 
	C15.010212,668.431274 16.676788,678.447998 19.362495,688.183838 
	C22.511696,699.599731 26.242521,710.881165 30.276691,722.019714 
	C34.489491,733.651428 38.919975,745.246277 44.055058,756.492004 
	C51.197277,772.133301 58.290237,787.891357 66.849953,802.767639 
	C77.904411,821.979675 89.891693,840.709351 102.426727,858.995911 
	C110.798538,871.209106 120.815880,882.295227 130.114716,893.871399 
	C133.206604,897.720581 136.354202,901.525024 139.763519,905.470093 
z"/>
<path fill="#FFFFFF" opacity="1.000000" stroke="none" 
	d="
M493.531342,1.000000 
	C493.255249,1.327420 492.534180,1.863359 491.762177,1.951202 
	C478.763519,3.430234 465.725861,4.615150 452.768921,6.391143 
	C446.442413,7.258306 440.275665,9.257711 434.013763,10.641331 
	C430.026581,11.522330 426.003174,12.244638 421.986267,12.985122 
	C399.794556,17.075979 378.483856,24.028919 357.182068,31.432966 
	C331.776093,40.263538 307.523041,51.472099 283.850983,63.938828 
	C269.163788,71.673744 254.765564,80.257339 241.293274,89.930267 
	C220.073120,105.166023 198.903320,120.679108 179.248199,137.834610 
	C155.125656,158.889435 132.861542,182.025864 114.048248,208.154541 
	C102.287819,224.487915 90.020592,240.530380 79.388870,257.581329 
	C69.045189,274.170380 59.970779,291.619751 51.325493,309.177094 
	C44.385277,323.271667 38.392445,337.898010 32.951908,352.647156 
	C27.668938,366.969147 23.447521,381.695435 19.098206,396.344604 
	C16.179518,406.175201 13.350472,416.082672 11.376728,426.131592 
	C8.544955,440.548981 6.395041,455.106537 4.219079,469.643951 
	C3.042161,477.506866 2.415606,485.452148 1.270385,493.680145 
	C1.000000,329.739594 1.000000,165.479156 1.000000,1.000000 
	C165.020828,1.000000 329.041748,1.000000 493.531342,1.000000 
z"/>
<path fill="#FFFFFF" opacity="1.000000" stroke="none" 
	d="
M1081.000000,493.531342 
	C1080.631714,492.922089 1080.263550,491.844177 1079.835205,490.423981 
	C1078.579346,479.420563 1077.492554,468.745605 1076.144287,458.103790 
	C1075.418823,452.377838 1074.403687,446.675964 1073.237305,441.021393 
	C1071.396240,432.095886 1069.412476,423.196930 1067.312744,414.328491 
	C1065.345825,406.020844 1063.357178,397.707794 1061.001221,389.505402 
	C1058.134277,379.524048 1055.220337,369.530487 1051.693726,359.770935 
	C1047.364990,347.791809 1042.686401,335.917175 1037.619263,324.231445 
	C1026.463501,298.503998 1013.529175,273.658081 998.284790,250.117554 
	C983.843933,227.817932 968.551208,206.058868 950.405090,186.564850 
	C935.119995,170.144363 919.973450,153.481628 903.470764,138.337006 
	C883.573608,120.077164 862.010803,103.767937 839.404297,88.792900 
	C811.128418,70.062309 781.420227,54.111229 750.226990,41.045513 
	C733.638000,34.096973 716.392761,28.655775 699.274658,23.050531 
	C687.809143,19.296211 676.181641,15.798330 664.384949,13.350025 
	C647.128601,9.768620 629.675476,7.107088 612.265808,4.304673 
	C604.455444,3.047448 596.547241,2.398638 588.341675,1.236874 
	C752.260437,1.000000 916.520813,1.000000 1081.000000,1.000000 
	C1081.000000,165.020828 1081.000000,329.041748 1081.000000,493.531342 
z"/>
<path fill="#FFFFFF" opacity="1.000000" stroke="none" 
	d="
M588.468628,1081.000000 
	C589.071655,1080.649658 590.119507,1080.126709 591.218506,1079.974976 
	C606.616516,1077.846924 622.039795,1075.894287 637.417786,1073.632568 
	C646.583252,1072.284668 655.865662,1071.150391 664.769043,1068.722900 
	C683.038452,1063.741455 701.199646,1058.293701 719.191345,1052.386353 
	C732.415833,1048.044189 745.321106,1042.720093 758.319702,1037.707031 
	C761.182251,1036.603027 763.838379,1034.963867 766.817627,1033.296021 
	C767.045715,1033.020996 767.041504,1033.063477 767.417908,1033.105103 
	C775.282898,1029.674438 782.874023,1026.403320 790.223083,1022.657288 
	C794.928040,1020.259094 799.275757,1017.159790 803.870056,1014.385498 
	C803.956482,1014.396179 804.022522,1014.234985 804.022522,1014.234985 
	C810.183777,1010.850464 816.483887,1007.693909 822.482178,1004.041870 
	C848.305664,988.319397 873.089600,971.092163 895.369080,950.595093 
	C911.559570,935.699890 927.079163,920.075500 942.976074,904.456909 
	C950.631226,895.206238 958.467285,886.479065 965.713135,877.286560 
	C973.199219,867.789185 980.589050,858.149414 987.167053,848.017517 
	C998.003296,831.326965 1008.873230,814.583130 1018.384888,797.129272 
	C1027.640503,780.145203 1035.875732,762.518982 1043.310425,744.655151 
	C1049.501221,729.780396 1054.083130,714.216675 1058.997192,698.836548 
	C1062.562622,687.677551 1066.019531,676.435486 1068.591797,665.020142 
	C1071.534912,651.958557 1073.712891,638.704895 1075.727417,625.459290 
	C1077.636841,612.905945 1078.904907,600.255005 1080.727539,587.323486 
	C1081.000000,751.593689 1081.000000,916.187317 1081.000000,1081.000000 
	C916.979187,1081.000000 752.958252,1081.000000 588.468628,1081.000000 
z"/>
<path fill="#E9A678" opacity="1.000000" stroke="none" 
	d="
M424.705170,688.193604 
	C424.112488,687.681213 423.519806,687.168762 422.760986,686.396423 
	C422.697754,683.814087 422.887451,681.491821 422.890625,679.169312 
	C422.947784,637.390869 422.982391,595.612488 423.437195,553.459961 
	C428.431152,557.423584 432.957794,561.817749 437.598572,566.087830 
	C448.908417,576.494202 461.419800,585.142334 475.229462,591.948730 
	C493.669922,601.037537 513.181885,606.390198 533.446228,609.403931 
	C540.610291,610.469421 540.997437,610.433289 540.997681,603.452698 
	C541.001099,504.855743 541.001038,406.258789 540.997864,307.661835 
	C540.997681,301.032288 540.967285,301.296844 534.449829,300.908722 
	C529.611389,300.620544 524.820618,299.532501 520.329834,298.625854 
	C527.778320,298.922180 534.905579,299.393311 542.441223,299.940674 
	C544.230103,299.970123 545.610535,299.923370 547.440552,299.972595 
	C551.761780,299.524323 555.633484,298.980103 559.938782,298.472534 
	C565.239441,298.269073 570.106384,298.028961 575.329712,297.874451 
	C576.938538,297.426788 578.190918,296.893555 579.873596,296.375061 
	C589.587952,294.794189 599.158447,294.132172 608.091370,291.391724 
	C622.769714,286.888794 637.039490,281.051727 651.469849,275.745331 
	C654.563599,274.607635 656.477173,274.298035 657.259521,278.748474 
	C659.468567,291.314484 662.322144,303.766327 664.858337,316.276031 
	C667.229431,327.971558 669.512512,339.684906 671.847168,351.387848 
	C673.820862,361.281281 675.929138,371.149902 677.730835,381.074371 
	C678.318481,384.311768 680.007935,385.018585 682.896851,384.955750 
	C688.718262,384.829041 694.550781,384.755432 700.366150,384.983307 
	C703.747009,385.115784 706.202820,384.047943 707.807007,381.128204 
	C712.667053,372.282440 718.284424,363.745056 722.117432,354.471893 
	C726.271851,344.421204 728.751038,333.678009 731.960693,323.236786 
	C745.594116,328.809265 753.376709,339.624481 758.119080,352.942230 
	C761.385559,362.115479 762.139465,371.475250 760.897644,381.328278 
	C759.278137,394.177246 758.715515,407.187592 758.256348,420.148224 
	C757.520691,440.913361 748.930298,456.294250 728.854614,463.618530 
	C723.871460,465.436554 718.087708,466.036224 712.777405,465.669220 
	C708.613159,465.381348 707.151306,466.911652 705.777649,470.036133 
	C700.912598,481.101593 696.334778,492.313385 690.976624,503.137329 
	C682.702087,519.852661 673.070007,535.756226 660.376892,549.614807 
	C659.569092,550.496765 659.431580,551.992554 658.562134,553.644531 
	C655.923645,556.071716 653.560364,557.918640 651.510315,560.064819 
	C637.581299,574.646606 621.600830,586.450439 603.100891,594.439575 
	C593.941101,598.395203 584.273132,601.275146 574.669250,604.072449 
	C565.477539,606.749573 556.157776,609.251343 546.721130,610.708923 
	C542.204834,611.406555 540.875732,612.489136 540.916565,616.930542 
	C541.106445,637.567688 540.994080,658.207520 541.003601,678.846436 
	C541.006897,685.917847 541.075134,685.980164 548.369080,685.981384 
	C582.489807,685.986877 616.610657,685.958740 650.731201,686.042542 
	C652.947937,686.048035 655.162537,686.890991 657.378174,687.344360 
	C652.048035,696.126099 646.870667,705.004822 641.362610,713.673584 
	C608.577087,765.272034 575.716064,816.822571 542.868286,868.381409 
	C542.517273,868.932434 542.003113,869.379578 541.322754,870.122192 
	C540.436707,869.813599 539.793030,869.258057 539.486084,868.192383 
	C540.216187,866.146973 540.951904,864.612000 540.953491,863.076233 
	C541.011719,805.989563 540.970459,748.902832 541.065247,691.816284 
	C541.072327,687.531128 539.678955,685.945312 535.301575,685.960449 
	C500.350952,686.081238 465.399628,685.993774 430.449036,686.120422 
	C428.531952,686.127380 426.619690,687.471802 424.705170,688.193604 
z"/>
<path fill="#FFC397" opacity="1.000000" stroke="none" 
	d="
M520.008606,298.800720 
	C524.820618,299.532501 529.611389,300.620544 534.449829,300.908722 
	C540.967285,301.296844 540.997681,301.032288 540.997864,307.661835 
	C541.001038,406.258789 541.001099,504.855743 540.997681,603.452698 
	C540.997437,610.433289 540.610291,610.469421 533.446228,609.403931 
	C513.181885,606.390198 493.669922,601.037537 475.229462,591.948730 
	C461.419800,585.142334 448.908417,576.494202 437.598572,566.087830 
	C432.957794,561.817749 428.431152,557.423584 423.536102,552.994080 
	C420.084473,548.488953 416.785034,544.181885 413.847076,539.640991 
	C406.934418,528.956909 400.194336,518.161255 393.104065,506.833252 
	C387.244049,493.515076 381.768341,480.726379 375.942078,468.099426 
	C375.276031,466.655975 372.588501,465.207458 370.939240,465.314728 
	C362.967987,465.833191 355.428253,464.394562 348.076202,461.514282 
	C331.857330,452.730255 324.984375,438.487915 323.998993,420.673981 
	C323.246796,407.075104 322.419098,393.475891 321.316071,379.901947 
	C319.581940,358.561310 325.594940,340.529419 343.127991,327.259094 
	C344.945984,325.883118 347.161926,325.032959 349.597229,324.291840 
	C350.424957,325.444977 350.848755,326.245087 351.331055,327.289429 
	C351.391998,327.867157 351.394379,328.200623 351.292603,328.895111 
	C351.725922,330.191406 352.263397,331.126709 352.893799,332.428497 
	C353.117065,334.046082 353.247375,335.297211 353.282532,336.915405 
	C353.775818,338.194061 354.364258,339.105560 355.045105,340.357758 
	C355.240570,341.632355 355.343597,342.566315 355.335724,343.885406 
	C355.909332,345.523041 356.593872,346.775543 357.341980,348.269043 
	C357.476105,348.839264 357.485657,349.170197 357.364136,349.842010 
	C357.830658,350.799286 358.367279,351.417389 359.015930,352.333038 
	C359.229279,353.256287 359.330566,353.882019 359.363220,354.846893 
	C359.831787,355.802368 360.369019,356.418701 361.076538,357.305603 
	C361.466736,358.392548 361.686615,359.208923 361.727081,360.266663 
	C363.998566,364.689026 366.449463,368.870087 369.144073,373.245972 
	C369.899139,374.348175 370.410431,375.255554 370.936462,376.482300 
	C371.569031,377.565002 372.186920,378.328369 373.071411,379.285583 
	C374.523651,381.105835 375.709290,382.732269 376.999329,384.624146 
	C378.069946,384.921844 379.036133,384.954163 380.469360,384.948425 
	C387.290283,384.936676 393.644165,384.962921 400.228333,385.205383 
	C401.596710,384.861664 402.734802,384.301758 403.875122,383.372620 
	C404.032013,382.033844 404.186646,381.064331 404.641785,379.959412 
	C405.305359,377.551697 405.668396,375.279419 406.021973,372.639282 
	C406.122742,371.545624 406.232971,370.819824 406.640625,369.953613 
	C407.313232,367.546967 407.688446,365.280792 408.050903,362.620941 
	C408.187836,361.191833 408.337524,360.156342 408.770172,358.977844 
	C409.396606,356.896576 409.740112,354.958344 410.070709,352.626221 
	C410.208313,351.195648 410.358795,350.158936 410.786438,348.971405 
	C411.404510,346.887512 411.745422,344.954468 412.077209,342.610413 
	C412.262695,340.850037 412.457275,339.500702 412.925842,338.016174 
	C413.487885,336.259277 413.775970,334.637573 414.062683,332.604858 
	C414.268799,330.846252 414.476288,329.498657 414.978638,327.982849 
	C415.701385,325.712799 416.129272,323.610931 416.542664,321.115906 
	C416.697205,319.152679 416.866211,317.582611 417.388733,315.887451 
	C418.019165,314.346466 418.296112,312.930573 418.559753,311.111359 
	C418.762756,308.825195 418.979034,306.942322 419.530273,304.917236 
	C420.128510,303.376038 420.391785,301.977051 420.631226,300.321411 
	C420.655670,299.725067 420.703949,299.385437 421.027710,298.780396 
	C421.866760,294.676392 422.430328,290.837769 422.985779,286.631592 
	C423.099335,285.540985 423.220978,284.818024 423.653564,283.949158 
	C424.601074,282.324646 425.039520,280.711517 425.927338,279.403442 
	C426.906189,277.961273 428.297546,276.799072 429.859955,275.543579 
	C432.138885,276.385406 434.067139,277.198608 436.084167,278.342468 
	C436.950165,278.967896 437.727386,279.262695 438.821075,279.573853 
	C439.747498,279.756348 440.357422,279.922455 441.066101,280.411621 
	C441.943085,281.011719 442.721313,281.288788 443.818054,281.574524 
	C444.755768,281.727142 445.375031,281.871124 446.089233,282.344177 
	C446.963348,282.964233 447.742493,283.255219 448.838043,283.555908 
	C449.769287,283.711609 450.384094,283.857574 451.105042,284.347168 
	C452.275452,285.019928 453.339661,285.349060 454.761902,285.686066 
	C456.056885,285.866821 456.993866,286.039703 458.044922,286.519653 
	C458.925934,287.095612 459.692932,287.364532 460.813232,287.642487 
	C462.086761,287.845428 463.006958,288.039337 464.031738,288.535034 
	C465.756714,289.227631 467.377136,289.618500 469.364349,290.009888 
	C470.450256,290.143402 471.169312,290.276367 472.010956,290.693817 
	C473.752777,291.331757 475.372070,291.685211 477.357117,292.046265 
	C478.436157,292.205536 479.149475,292.357178 479.976807,292.802155 
	C481.723450,293.412567 483.356049,293.729706 485.399048,294.038116 
	C487.156464,294.221313 488.503448,294.413239 489.982880,294.894348 
	C492.061920,295.515167 494.008514,295.846771 496.380737,296.157806 
	C498.486267,296.323761 500.166260,296.510254 501.997223,296.980774 
	C504.425385,297.536499 506.702545,297.808228 509.418274,298.066406 
	C513.240723,298.302155 516.624695,298.551422 520.008606,298.800720 
z"/>
<path fill="#894A1E" opacity="1.000000" stroke="none" 
	d="
M731.979797,322.875702 
	C728.751038,333.678009 726.271851,344.421204 722.117432,354.471893 
	C718.284424,363.745056 712.667053,372.282440 707.807007,381.128204 
	C706.202820,384.047943 703.747009,385.115784 700.366150,384.983307 
	C694.550781,384.755432 688.718262,384.829041 682.896851,384.955750 
	C680.007935,385.018585 678.318481,384.311768 677.730835,381.074371 
	C675.929138,371.149902 673.820862,361.281281 671.847168,351.387848 
	C669.512512,339.684906 667.229431,327.971558 664.858337,316.276031 
	C662.322144,303.766327 659.468567,291.314484 657.259521,278.748474 
	C656.477173,274.298035 654.563599,274.607635 651.469849,275.745331 
	C637.039490,281.051727 622.769714,286.888794 608.091370,291.391724 
	C599.158447,294.132172 589.587952,294.794189 579.485840,296.278259 
	C577.436340,296.707397 576.204895,297.248108 574.973389,297.788879 
	C570.106384,298.028961 565.239441,298.269073 559.447693,298.354614 
	C554.678955,298.758911 550.834961,299.317780 546.990967,299.876617 
	C545.610535,299.923370 544.230103,299.970123 542.362915,299.541595 
	C541.584106,297.275391 541.037537,295.484589 541.036804,293.693573 
	C541.012085,231.667511 541.038879,169.641434 541.058350,107.615364 
	C554.697937,104.388664 568.324524,101.105698 581.980286,97.949173 
	C600.049805,93.772392 618.485474,92.978043 636.886414,93.235107 
	C651.940002,93.445427 666.974670,95.057259 682.013245,96.111824 
	C682.739929,96.162781 683.423218,96.831650 684.325684,97.588745 
	C679.149536,111.314537 673.808838,124.678337 668.384521,138.008118 
	C665.748169,144.486649 665.757935,144.263947 672.025879,146.869492 
	C694.146912,156.065109 715.447998,166.877701 734.756958,181.144089 
	C745.156982,188.828140 755.026611,197.255554 764.861389,205.668137 
	C769.607727,209.728119 769.305725,210.717957 763.611328,212.628021 
	C755.488953,215.352509 747.283264,217.840851 739.060730,220.251099 
	C732.437073,222.192688 732.301697,222.486099 732.787354,229.233368 
	C733.918701,244.954758 735.728333,260.698364 735.598938,276.419250 
	C735.472351,291.793213 733.282837,307.150177 731.979797,322.875702 
z"/>
<path fill="#AF5F23" opacity="1.000000" stroke="none" 
	d="
M540.662170,107.468689 
	C541.038879,169.641434 541.012085,231.667511 541.036804,293.693573 
	C541.037537,295.484589 541.584106,297.275391 541.954468,299.465393 
	C534.905579,299.393311 527.778320,298.922180 520.329834,298.625854 
	C516.624695,298.551422 513.240723,298.302155 509.164429,297.799347 
	C506.263428,297.262817 504.054840,296.979797 501.846222,296.696747 
	C500.166260,296.510254 498.486267,296.323761 496.137756,295.893921 
	C493.596313,295.302094 491.723389,294.953613 489.850464,294.605164 
	C488.503448,294.413239 487.156464,294.221313 485.165070,293.783569 
	C482.968048,293.194763 481.415405,292.851807 479.862762,292.508850 
	C479.149475,292.357178 478.436157,292.205536 477.118774,291.798035 
	C474.972565,291.164551 473.430481,290.786926 471.888397,290.409332 
	C471.169312,290.276367 470.450256,290.143402 469.128357,289.756195 
	C466.992737,289.079071 465.459961,288.656158 463.927155,288.233246 
	C463.006958,288.039337 462.086761,287.845428 460.656586,287.368896 
	C459.408020,286.795074 458.669434,286.503845 457.930847,286.212616 
	C456.993866,286.039703 456.056885,285.866821 454.580566,285.401184 
	C453.027130,284.740173 452.013031,284.371857 450.998901,284.003571 
	C450.384094,283.857574 449.769287,283.711609 448.673828,283.287781 
	C447.460236,282.678345 446.727234,282.346741 445.994263,282.015106 
	C445.375031,281.871124 444.755768,281.727142 443.642090,281.317993 
	C442.420837,280.731445 441.694092,280.410004 440.967346,280.088562 
	C440.357422,279.922455 439.747498,279.756348 438.644043,279.319153 
	C437.432129,278.702637 436.713745,278.357239 435.995361,278.011810 
	C434.067139,277.198608 432.138885,276.385406 429.629517,275.272736 
	C426.928894,273.353027 425.326508,273.617859 424.709839,276.370819 
	C424.138855,278.919769 423.789551,281.518311 423.342651,284.095032 
	C423.220978,284.818024 423.099335,285.540985 422.763245,286.926086 
	C421.949921,291.407410 421.351074,295.226593 420.752228,299.045807 
	C420.703949,299.385437 420.655670,299.725067 420.341553,300.529846 
	C419.782257,302.349823 419.488770,303.704651 419.195282,305.059448 
	C418.979034,306.942322 418.762756,308.825195 418.274353,311.324677 
	C417.679901,313.298370 417.357574,314.655457 417.035217,316.012543 
	C416.866211,317.582611 416.697205,319.152679 416.272217,321.340851 
	C415.572083,324.022980 415.127930,326.087036 414.683777,328.151062 
	C414.476288,329.498657 414.268799,330.846252 413.794220,332.827240 
	C413.235382,335.024200 412.943634,336.587799 412.651886,338.151367 
	C412.457275,339.500702 412.262695,340.850037 411.809601,342.850067 
	C411.203857,345.374603 410.856567,347.248413 410.509277,349.122253 
	C410.358795,350.158936 410.208313,351.195648 409.809814,352.871643 
	C409.203644,355.380920 408.845428,357.250916 408.487213,359.120880 
	C408.337524,360.156342 408.187836,361.191833 407.797211,362.882202 
	C407.151917,365.722778 406.747559,367.908417 406.343201,370.094055 
	C406.232971,370.819824 406.122742,371.545624 405.787170,372.916260 
	C405.154999,375.739044 404.748138,377.916931 404.341278,380.094818 
	C404.186646,381.064331 404.032013,382.033844 403.537415,383.445923 
	C402.131012,384.255341 401.064514,384.622253 399.998047,384.989166 
	C393.644165,384.962921 387.290283,384.936676 380.206451,384.752441 
	C378.615967,384.515869 377.755463,384.437286 376.894928,384.358704 
	C375.709290,382.732269 374.523651,381.105835 373.078857,378.965942 
	C372.187042,377.689270 371.554382,376.926117 370.921753,376.162933 
	C370.410431,375.255554 369.899139,374.348175 369.128754,372.884491 
	C366.548615,368.227234 364.227570,364.126282 361.906494,360.025330 
	C361.686615,359.208923 361.466736,358.392548 361.075134,356.996368 
	C360.412903,355.780304 359.922363,355.144043 359.431854,354.507751 
	C359.330566,353.882019 359.229279,353.256287 359.023376,352.021179 
	C358.423889,350.775513 357.929047,350.139191 357.434204,349.502869 
	C357.485657,349.170197 357.476105,348.839264 357.467041,348.009644 
	C356.834564,346.172913 356.140594,344.836578 355.446625,343.500244 
	C355.343597,342.566315 355.240570,341.632355 355.092102,340.016357 
	C354.490326,338.405640 353.934021,337.476990 353.377686,336.548309 
	C353.247375,335.297211 353.117065,334.046082 352.969116,332.088501 
	C352.433258,330.432709 351.915009,329.483398 351.396790,328.534119 
	C351.394379,328.200623 351.391998,327.867157 351.477966,327.023560 
	C351.339508,325.505829 351.112671,324.498169 350.885864,323.490509 
	C345.675568,298.809631 346.510162,273.842621 347.641968,248.219940 
	C348.823029,241.175293 349.486816,234.742599 350.683502,228.410629 
	C351.584991,223.640686 349.926422,221.443695 345.327728,220.185562 
	C336.055328,217.648758 326.894897,214.692169 317.740784,211.745575 
	C316.460205,211.333374 315.476288,209.999420 314.355042,209.092133 
	C342.064972,180.995926 375.378418,161.605103 411.597778,146.840500 
	C415.782532,145.134613 416.410248,143.488052 414.714081,139.494095 
	C409.319427,126.791107 404.343079,113.911087 399.035614,101.170074 
	C397.639282,97.818024 397.972565,96.190010 401.960724,96.049934 
	C421.736786,95.355301 441.512848,93.913162 461.283447,93.998749 
	C485.862244,94.105148 509.865356,98.923828 533.473145,105.652031 
	C535.714111,106.290680 538.000610,106.769157 540.662170,107.468689 
z"/>
<path fill="#3E966C" opacity="1.000000" stroke="none" 
	d="
M348.188751,461.802429 
	C355.428253,464.394562 362.967987,465.833191 370.939240,465.314728 
	C372.588501,465.207458 375.276031,466.655975 375.942078,468.099426 
	C381.768341,480.726379 387.244049,493.515076 392.829712,506.619720 
	C379.951141,494.229797 367.048492,481.494171 354.200317,468.703766 
	C352.110504,466.623413 350.261566,464.301056 348.188751,461.802429 
z"/>
<path fill="#3A8F64" opacity="1.000000" stroke="none" 
	d="
M314.122437,209.218430 
	C315.476288,209.999420 316.460205,211.333374 317.740784,211.745575 
	C326.894897,214.692169 336.055328,217.648758 345.327728,220.185562 
	C349.926422,221.443695 351.584991,223.640686 350.683502,228.410629 
	C349.486816,234.742599 348.823029,241.175293 347.643555,247.746567 
	C346.238831,245.801575 345.541321,243.264801 343.933533,241.615295 
	C334.463287,231.899277 324.755096,222.415512 315.218018,212.763641 
	C314.429504,211.965637 314.316620,210.500107 314.122437,209.218430 
z"/>
<path fill="#E9A678" opacity="1.000000" stroke="none" 
	d="
M350.631226,323.576904 
	C351.112671,324.498169 351.339508,325.505829 351.419434,326.779358 
	C350.848755,326.245087 350.424957,325.444977 349.958313,324.292480 
	C350.069153,323.847870 350.222839,323.755585 350.631226,323.576904 
z"/>
<path fill="#D38C5B" opacity="1.000000" stroke="none" 
	d="
M657.668823,687.259766 
	C655.162537,686.890991 652.947937,686.048035 650.731201,686.042542 
	C616.610657,685.958740 582.489807,685.986877 548.369080,685.981384 
	C541.075134,685.980164 541.006897,685.917847 541.003601,678.846436 
	C540.994080,658.207520 541.106445,637.567688 540.916565,616.930542 
	C540.875732,612.489136 542.204834,611.406555 546.721130,610.708923 
	C556.157776,609.251343 565.477539,606.749573 574.669250,604.072449 
	C584.273132,601.275146 593.941101,598.395203 603.100891,594.439575 
	C621.600830,586.450439 637.581299,574.646606 651.510315,560.064819 
	C653.560364,557.918640 655.923645,556.071716 658.460999,554.003296 
	C658.895081,556.238403 659.107666,558.556335 659.110657,560.874573 
	C659.164490,602.288513 659.192810,643.702454 659.314453,685.581421 
	C658.921265,686.422668 658.440369,686.798889 657.668823,687.259766 
z"/>
<path fill="#17416B" opacity="1.000000" stroke="none" 
	d="
M804.089600,1013.885803 
	C804.022522,1014.234985 803.956482,1014.396179 803.467834,1014.328857 
	C794.309570,1018.242310 785.551086,1022.044312 777.012878,1026.289429 
	C773.447754,1028.062012 770.351135,1030.776978 767.041504,1033.063477 
	C767.041504,1033.063477 767.045715,1033.020996 767.057495,1033.039795 
	C761.593079,1034.711670 756.116760,1036.364868 749.644165,1038.318848 
	C749.479736,1035.903564 749.100464,1033.282349 749.171265,1030.673584 
	C749.274536,1026.867432 749.948059,1023.070435 749.952759,1019.269043 
	C750.010376,972.468628 749.988586,925.668091 749.992371,878.867615 
	C749.992920,872.010437 750.004822,872.000305 756.856323,871.998230 
	C774.843689,871.992615 792.832642,872.127197 810.817383,871.910706 
	C815.689941,871.851990 817.098450,873.626709 817.082703,878.331360 
	C816.947144,918.802551 816.829468,959.275818 817.185730,999.744324 
	C817.242371,1006.183838 812.573242,1007.031189 809.168945,1009.731750 
	C807.526001,1011.035156 805.829102,1012.270447 804.089600,1013.885803 
z"/>
<path fill="#FDC297" opacity="1.000000" stroke="none" 
	d="
M424.768311,688.547546 
	C426.619690,687.471802 428.531952,686.127380 430.449036,686.120422 
	C465.399628,685.993774 500.350952,686.081238 535.301575,685.960449 
	C539.678955,685.945312 541.072327,687.531128 541.065247,691.816284 
	C540.970459,748.902832 541.011719,805.989563 540.953491,863.076233 
	C540.951904,864.612000 540.216187,866.146973 539.480286,867.864746 
	C531.427368,856.249451 523.607971,844.521301 516.026184,832.641541 
	C489.423035,790.957275 462.892273,749.226868 436.359497,707.497742 
	C432.446503,701.343689 428.670746,695.102356 424.768311,688.547546 
z"/>
<path fill="#215178" opacity="1.000000" stroke="none" 
	d="
M316.255737,1033.436279 
	C307.840851,1029.621948 299.272430,1026.108032 291.054016,1021.909241 
	C282.753479,1017.668701 274.799896,1012.749084 266.363953,1007.966797 
	C265.680206,1005.189270 265.023102,1002.572388 265.018890,999.954468 
	C264.953674,959.506348 264.970581,919.057983 264.975800,878.609741 
	C264.976654,872.009888 264.992889,871.995605 271.581879,871.992920 
	C290.058258,871.985352 308.535736,872.101013 327.010193,871.913391 
	C331.611389,871.866638 333.063354,873.501099 333.053589,878.025513 
	C332.941833,929.792358 333.001740,981.559631 332.913452,1033.326538 
	C332.910004,1035.357056 331.880127,1037.385864 331.145630,1039.762207 
	C330.520569,1040.072144 330.078369,1040.035278 329.279663,1039.566772 
	C327.932648,1038.806152 326.942108,1038.477051 325.951569,1038.148071 
	C325.502289,1038.031860 325.053009,1037.915771 324.148041,1037.500000 
	C323.437836,1037.033203 323.168060,1037.003296 322.882996,1037.110474 
	C322.882996,1037.110474 323.005859,1037.029053 322.872986,1036.715088 
	C321.899811,1036.108154 321.059540,1035.815308 320.219269,1035.522461 
	C320.219269,1035.522461 319.748871,1035.636719 319.748871,1035.636719 
	C319.748871,1035.636719 319.275757,1035.534180 319.014893,1035.000854 
	C317.921265,1034.123779 317.088501,1033.780029 316.255737,1033.436279 
z"/>
<path fill="#336B90" opacity="1.000000" stroke="none" 
	d="
M326.058472,1038.451416 
	C326.942108,1038.477051 327.932648,1038.806152 328.974426,1039.430908 
	C328.072266,1039.402710 327.118835,1039.078735 326.058472,1038.451416 
z"/>
<path fill="#336B90" opacity="1.000000" stroke="none" 
	d="
M316.349670,1033.785767 
	C317.088501,1033.780029 317.921265,1034.123779 318.844910,1034.828613 
	C318.105042,1034.838135 317.274323,1034.486694 316.349670,1033.785767 
z"/>
<path fill="#336B90" opacity="1.000000" stroke="none" 
	d="
M320.461914,1035.749023 
	C321.059540,1035.815308 321.899811,1036.108154 322.817139,1036.763916 
	C322.164337,1036.742920 321.434479,1036.359253 320.461914,1035.749023 
z"/>
<path fill="#336B90" opacity="1.000000" stroke="none" 
	d="
M322.981384,1037.321167 
	C323.168060,1037.003296 323.437836,1037.033203 323.826752,1037.360840 
	C323.961121,1037.521362 323.522186,1037.674438 323.522186,1037.674438 
	C323.522186,1037.674438 323.079803,1037.531860 322.981384,1037.321167 
z"/>
<path fill="#205077" opacity="1.000000" stroke="none" 
	d="
M767.417908,1033.105103 
	C770.351135,1030.776978 773.447754,1028.062012 777.012878,1026.289429 
	C785.551086,1022.044312 794.309570,1018.242310 803.381409,1014.318115 
	C799.275757,1017.159790 794.928040,1020.259094 790.223083,1022.657288 
	C782.874023,1026.403320 775.282898,1029.674438 767.417908,1033.105103 
z"/>
<path fill="#AF5F23" opacity="1.000000" stroke="none" 
	d="
M547.440552,299.972595 
	C550.834961,299.317780 554.678955,298.758911 559.014038,298.317993 
	C555.633484,298.980103 551.761780,299.524323 547.440552,299.972595 
z"/>
<path fill="#AF5F23" opacity="1.000000" stroke="none" 
	d="
M575.329712,297.874420 
	C576.204895,297.248108 577.436340,296.707397 579.055603,296.263489 
	C578.190918,296.893555 576.938538,297.426788 575.329712,297.874420 
z"/>
<path fill="#E9A678" opacity="1.000000" stroke="none" 
	d="
M361.727081,360.266663 
	C364.227570,364.126282 366.548615,368.227234 368.885010,372.689697 
	C366.449463,368.870087 363.998566,364.689026 361.727081,360.266663 
z"/>
<path fill="#E9A678" opacity="1.000000" stroke="none" 
	d="
M423.653595,283.949158 
	C423.789551,281.518311 424.138855,278.919769 424.709839,276.370819 
	C425.326508,273.617859 426.928894,273.353027 429.278809,275.244080 
	C428.297546,276.799072 426.906189,277.961273 425.927338,279.403442 
	C425.039520,280.711517 424.601074,282.324646 423.653595,283.949158 
z"/>
<path fill="#E9A678" opacity="1.000000" stroke="none" 
	d="
M421.027710,298.780396 
	C421.351074,295.226593 421.949921,291.407410 422.771332,287.293701 
	C422.430328,290.837769 421.866760,294.676392 421.027710,298.780396 
z"/>
<path fill="#E9A678" opacity="1.000000" stroke="none" 
	d="
M501.997223,296.980774 
	C504.054840,296.979797 506.263428,297.262817 508.725891,297.812927 
	C506.702545,297.808228 504.425385,297.536499 501.997223,296.980774 
z"/>
<path fill="#E9A678" opacity="1.000000" stroke="none" 
	d="
M406.640625,369.953613 
	C406.747559,367.908417 407.151917,365.722778 407.809937,363.275879 
	C407.688446,365.280792 407.313232,367.546967 406.640625,369.953613 
z"/>
<path fill="#E9A678" opacity="1.000000" stroke="none" 
	d="
M404.641785,379.959412 
	C404.748138,377.916931 405.154999,375.739044 405.796631,373.284149 
	C405.668396,375.279419 405.305359,377.551697 404.641785,379.959412 
z"/>
<path fill="#E9A678" opacity="1.000000" stroke="none" 
	d="
M414.978607,327.982849 
	C415.127930,326.087036 415.572083,324.022980 416.286713,321.734009 
	C416.129272,323.610931 415.701385,325.712799 414.978607,327.982849 
z"/>
<path fill="#E9A678" opacity="1.000000" stroke="none" 
	d="
M489.982880,294.894348 
	C491.723389,294.953613 493.596313,295.302094 495.712189,295.914429 
	C494.008514,295.846771 492.061920,295.515167 489.982880,294.894348 
z"/>
<path fill="#E9A678" opacity="1.000000" stroke="none" 
	d="
M410.786438,348.971405 
	C410.856567,347.248413 411.203857,345.374603 411.818726,343.261108 
	C411.745422,344.954468 411.404510,346.887512 410.786438,348.971405 
z"/>
<path fill="#E9A678" opacity="1.000000" stroke="none" 
	d="
M408.770172,358.977844 
	C408.845428,357.250916 409.203644,355.380920 409.822754,353.265564 
	C409.740112,354.958344 409.396606,356.896576 408.770172,358.977844 
z"/>
<path fill="#E9A678" opacity="1.000000" stroke="none" 
	d="
M479.976807,292.802155 
	C481.415405,292.851807 482.968048,293.194763 484.754700,293.792297 
	C483.356049,293.729706 481.723450,293.412567 479.976807,292.802155 
z"/>
<path fill="#E9A678" opacity="1.000000" stroke="none" 
	d="
M412.925842,338.016174 
	C412.943634,336.587799 413.235382,335.024200 413.795593,333.238281 
	C413.775970,334.637573 413.487885,336.259277 412.925842,338.016174 
z"/>
<path fill="#E9A678" opacity="1.000000" stroke="none" 
	d="
M464.031738,288.535034 
	C465.459961,288.656158 466.992737,289.079071 468.761536,289.755646 
	C467.377136,289.618500 465.756714,289.227631 464.031738,288.535034 
z"/>
<path fill="#E9A678" opacity="1.000000" stroke="none" 
	d="
M472.010956,290.693817 
	C473.430481,290.786926 474.972565,291.164551 476.752991,291.790405 
	C475.372070,291.685211 473.752777,291.331757 472.010956,290.693817 
z"/>
<path fill="#E9A678" opacity="1.000000" stroke="none" 
	d="
M355.335724,343.885406 
	C356.140594,344.836578 356.834564,346.172913 357.403442,347.768616 
	C356.593872,346.775543 355.909332,345.523041 355.335724,343.885406 
z"/>
<path fill="#E9A678" opacity="1.000000" stroke="none" 
	d="
M417.388733,315.887451 
	C417.357574,314.655457 417.679901,313.298370 418.287659,311.727966 
	C418.296112,312.930573 418.019165,314.346466 417.388733,315.887451 
z"/>
<path fill="#E9A678" opacity="1.000000" stroke="none" 
	d="
M419.530273,304.917236 
	C419.488770,303.704651 419.782257,302.349823 420.365417,300.786560 
	C420.391785,301.977051 420.128510,303.376038 419.530273,304.917236 
z"/>
<path fill="#E9A678" opacity="1.000000" stroke="none" 
	d="
M400.228333,385.205383 
	C401.064514,384.622253 402.131012,384.255341 403.535187,383.815155 
	C402.734802,384.301758 401.596710,384.861664 400.228333,385.205383 
z"/>
<path fill="#E9A678" opacity="1.000000" stroke="none" 
	d="
M376.999329,384.624146 
	C377.755463,384.437286 378.615967,384.515869 379.739410,384.790436 
	C379.036133,384.954163 378.069946,384.921844 376.999329,384.624146 
z"/>
<path fill="#E9A678" opacity="1.000000" stroke="none" 
	d="
M353.282532,336.915405 
	C353.934021,337.476990 354.490326,338.405640 354.999664,339.675690 
	C354.364258,339.105560 353.775818,338.194061 353.282532,336.915405 
z"/>
<path fill="#E9A678" opacity="1.000000" stroke="none" 
	d="
M351.292603,328.895111 
	C351.915009,329.483398 352.433258,330.432709 352.876160,331.721985 
	C352.263397,331.126709 351.725922,330.191406 351.292603,328.895111 
z"/>
<path fill="#E9A678" opacity="1.000000" stroke="none" 
	d="
M451.105042,284.347168 
	C452.013031,284.371857 453.027130,284.740173 454.222595,285.393311 
	C453.339661,285.349060 452.275452,285.019928 451.105042,284.347168 
z"/>
<path fill="#E9A678" opacity="1.000000" stroke="none" 
	d="
M370.936462,376.482300 
	C371.554382,376.926117 372.187042,377.689270 372.812225,378.772095 
	C372.186920,378.328369 371.569031,377.565002 370.936462,376.482300 
z"/>
<path fill="#E9A678" opacity="1.000000" stroke="none" 
	d="
M359.363220,354.846893 
	C359.922363,355.144043 360.412903,355.780304 360.904846,356.725830 
	C360.369019,356.418701 359.831787,355.802368 359.363220,354.846893 
z"/>
<path fill="#E9A678" opacity="1.000000" stroke="none" 
	d="
M357.364136,349.842010 
	C357.929047,350.139191 358.423889,350.775513 358.911316,351.723694 
	C358.367279,351.417389 357.830658,350.799286 357.364136,349.842010 
z"/>
<path fill="#E9A678" opacity="1.000000" stroke="none" 
	d="
M458.044922,286.519653 
	C458.669434,286.503845 459.408020,286.795074 460.303253,287.359863 
	C459.692932,287.364532 458.925934,287.095612 458.044922,286.519653 
z"/>
<path fill="#E9A678" opacity="1.000000" stroke="none" 
	d="
M446.089233,282.344177 
	C446.727234,282.346741 447.460236,282.678345 448.357422,283.278076 
	C447.742493,283.255219 446.963348,282.964233 446.089233,282.344177 
z"/>
<path fill="#E9A678" opacity="1.000000" stroke="none" 
	d="
M441.066101,280.411621 
	C441.694092,280.410004 442.420837,280.731445 443.323578,281.309357 
	C442.721313,281.288788 441.943085,281.011719 441.066101,280.411621 
z"/>
<path fill="#E9A678" opacity="1.000000" stroke="none" 
	d="
M436.084167,278.342468 
	C436.713745,278.357239 437.432129,278.702637 438.327545,279.302765 
	C437.727386,279.262695 436.950165,278.967896 436.084167,278.342468 
z"/>
</svg>